<?xml version="1.0" encoding="UTF-8" standalone="no"?>
<!DOCTYPE svg PUBLIC "-//W3C//DTD SVG 1.1//EN" "http://www.w3.org/Graphics/SVG/1.1/DTD/svg11.dtd">
<svg version="1.1" xmlns="http://www.w3.org/2000/svg" xmlns:xlink="http://www.w3.org/1999/xlink" preserveAspectRatio="xMidYMid meet" viewBox="0 0 640 640" width="256" height="256"><defs><path d="M103.23 234.29C108.76 234.29 113.23 238.76 113.23 244.29C113.23 301.68 113.23 463.88 113.23 521.28C113.23 526.8 108.76 531.28 103.23 531.28C100.72 531.28 103.19 531.28 100.68 531.28C95.15 531.28 90.68 526.8 90.68 521.28C90.68 463.88 90.68 301.68 90.68 244.29C90.68 238.76 95.15 234.29 100.68 234.29C103.19 234.29 100.72 234.29 103.23 234.29Z" id="d18646TRkP"></path><path d="M210.98 234.29C216.5 234.29 220.98 238.76 220.98 244.29C220.98 301.68 220.98 463.88 220.98 521.28C220.98 526.8 216.5 531.28 210.98 531.28C208.47 531.28 210.93 531.28 208.42 531.28C202.9 531.28 198.42 526.8 198.42 521.28C198.42 463.88 198.42 301.68 198.42 244.29C198.42 238.76 202.9 234.29 208.42 234.29C210.93 234.29 208.47 234.29 210.98 234.29Z" id="bZ7TnXofE"></path><path d="M451.05 234.29C456.58 234.29 461.05 238.76 461.05 244.29C461.05 301.68 461.05 463.88 461.05 521.28C461.05 526.8 456.58 531.28 451.05 531.28C448.54 531.28 451.01 531.28 448.5 531.28C442.97 531.28 438.5 526.8 438.5 521.28C438.5 463.88 438.5 301.68 438.5 244.29C438.5 238.76 442.97 234.29 448.5 234.29C451.01 234.29 448.54 234.29 451.05 234.29Z" id="buNRWUejw"></path><path d="M562.56 234.29C568.08 234.29 572.56 238.76 572.56 244.29C572.56 301.68 572.56 463.88 572.56 521.28C572.56 526.8 568.08 531.28 562.56 531.28C560.05 531.28 562.51 531.28 560 531.28C554.48 531.28 550 526.8 550 521.28C550 463.88 550 301.68 550 244.29C550 238.76 554.48 234.29 560 234.29C562.51 234.29 560.05 234.29 562.56 234.29Z" id="eonCObhJ5"></path><path d="M86.3 201.21C86.3 204.65 89.09 207.44 92.53 207.44C119.41 207.44 193.79 207.44 220.67 207.44C224.11 207.44 226.9 204.65 226.9 201.21C226.9 199 226.9 198.6 226.9 196.38C226.9 192.94 224.11 190.15 220.67 190.15C193.79 190.15 119.41 190.15 92.53 190.15C89.09 190.15 86.3 192.94 86.3 196.38C86.3 198.6 86.3 199 86.3 201.21Z" id="b2lvNDnKwa"></path><path d="M86.3 569.11C86.3 572.55 89.09 575.34 92.53 575.34C119.41 575.34 193.79 575.34 220.67 575.34C224.11 575.34 226.9 572.55 226.9 569.11C226.9 566.89 226.9 566.49 226.9 564.28C226.9 560.84 224.11 558.05 220.67 558.05C193.79 558.05 119.41 558.05 92.53 558.05C89.09 558.05 86.3 560.84 86.3 564.28C86.3 566.49 86.3 566.89 86.3 569.11Z" id="c1c6cnFL7T"></path><path d="M435.49 201.21C435.49 204.65 438.28 207.44 441.72 207.44C468.6 207.44 542.98 207.44 569.86 207.44C573.3 207.44 576.09 204.65 576.09 201.21C576.09 199 576.09 198.6 576.09 196.38C576.09 192.94 573.3 190.15 569.86 190.15C542.98 190.15 468.6 190.15 441.72 190.15C438.28 190.15 435.49 192.94 435.49 196.38C435.49 198.6 435.49 199 435.49 201.21Z" id="b1PtxRXLQp"></path><path d="M435.49 569.11C435.49 572.55 438.28 575.34 441.72 575.34C468.6 575.34 542.98 575.34 569.86 575.34C573.3 575.34 576.09 572.55 576.09 569.11C576.09 566.89 576.09 566.49 576.09 564.28C576.09 560.84 573.3 558.05 569.86 558.05C542.98 558.05 468.6 558.05 441.72 558.05C438.28 558.05 435.49 560.84 435.49 564.28C435.49 566.49 435.49 566.89 435.49 569.11Z" id="d14mHQAlv"></path><path d="M154.96 234.29C160.49 234.29 164.96 238.76 164.96 244.29C164.96 301.68 164.96 463.88 164.96 521.28C164.96 526.8 160.49 531.28 154.96 531.28C152.45 531.28 154.92 531.28 152.41 531.28C146.88 531.28 142.41 526.8 142.41 521.28C142.41 463.88 142.41 301.68 142.41 244.29C142.41 238.76 146.88 234.29 152.41 234.29C154.92 234.29 152.45 234.29 154.96 234.29Z" id="aLNJ1sBjZ"></path><path d="M507.07 234.29C512.59 234.29 517.07 238.76 517.07 244.29C517.07 301.68 517.07 463.88 517.07 521.28C517.07 526.8 512.59 531.28 507.07 531.28C504.56 531.28 507.02 531.28 504.51 531.28C498.99 531.28 494.51 526.8 494.51 521.28C494.51 463.88 494.51 301.68 494.51 244.29C494.51 238.76 498.99 234.29 504.51 234.29C507.02 234.29 504.56 234.29 507.07 234.29Z" id="h2ebSzov6b"></path><path d="M349.85 234.29C355.37 234.29 359.85 238.76 359.85 244.29C359.85 262.74 359.85 308.09 359.85 326.54C359.85 332.06 355.37 336.54 349.85 336.54C338.32 336.54 313.71 336.54 302.18 336.54C296.66 336.54 292.18 332.06 292.18 326.54C292.18 308.09 292.18 262.74 292.18 244.29C292.18 238.76 296.66 234.29 302.18 234.29C313.71 234.29 338.32 234.29 349.85 234.29Z" id="dhUjQdFLP"></path><path d="M351.35 369.85C356.88 369.85 361.35 374.33 361.35 379.85C361.35 410.14 361.35 490.99 361.35 521.28C361.35 526.8 356.88 531.28 351.35 531.28C339.82 531.28 315.22 531.28 303.68 531.28C298.16 531.28 293.68 526.8 293.68 521.28C293.68 490.99 293.68 410.14 293.68 379.85C293.68 374.33 298.16 369.85 303.68 369.85C315.22 369.85 339.82 369.85 351.35 369.85Z" id="a3l2W9onx"></path><path d="M455.62 88.42C517.88 122.04 556.79 143.06 572.35 151.46C574.97 152.87 573.96 156.84 570.99 156.84C538.72 156.84 458.02 156.84 328.91 156.84C201.8 156.84 122.35 156.84 90.57 156.84C86.62 156.84 85.29 151.56 88.76 149.68C103.89 141.52 141.7 121.09 202.2 88.42L328.91 20L455.62 88.42Z" id="a1JKtDIL67"></path></defs><g><g><g><g><use xlink:href="#d18646TRkP" opacity="1" fill-opacity="0" stroke="#000000" stroke-width="14" stroke-opacity="1"></use></g></g><g><g><use xlink:href="#bZ7TnXofE" opacity="1" fill-opacity="0" stroke="#000000" stroke-width="14" stroke-opacity="1"></use></g></g><g><g><use xlink:href="#buNRWUejw" opacity="1" fill-opacity="0" stroke="#000000" stroke-width="14" stroke-opacity="1"></use></g></g><g><g><use xlink:href="#eonCObhJ5" opacity="1" fill-opacity="0" stroke="#000000" stroke-width="14" stroke-opacity="1"></use></g></g><g><g><use xlink:href="#b2lvNDnKwa" opacity="1" fill-opacity="0" stroke="#000000" stroke-width="14" stroke-opacity="1"></use></g></g><g><g><use xlink:href="#c1c6cnFL7T" opacity="1" fill-opacity="0" stroke="#000000" stroke-width="14" stroke-opacity="1"></use></g></g><g><g><use xlink:href="#b1PtxRXLQp" opacity="1" fill-opacity="0" stroke="#000000" stroke-width="14" stroke-opacity="1"></use></g></g><g><g><use xlink:href="#d14mHQAlv" opacity="1" fill-opacity="0" stroke="#000000" stroke-width="14" stroke-opacity="1"></use></g></g><g><g><use xlink:href="#aLNJ1sBjZ" opacity="1" fill-opacity="0" stroke="#000000" stroke-width="14" stroke-opacity="1"></use></g></g><g><g><use xlink:href="#h2ebSzov6b" opacity="1" fill-opacity="0" stroke="#000000" stroke-width="14" stroke-opacity="1"></use></g></g><g><g><use xlink:href="#dhUjQdFLP" opacity="1" fill-opacity="0" stroke="#000000" stroke-width="14" stroke-opacity="1"></use></g></g><g><g><use xlink:href="#a3l2W9onx" opacity="1" fill-opacity="0" stroke="#000000" stroke-width="14" stroke-opacity="1"></use></g></g><g><g><use xlink:href="#a1JKtDIL67" opacity="1" fill-opacity="0" stroke="#000000" stroke-width="14" stroke-opacity="1"></use></g></g></g></g></svg>